<svg width="40" height="40" viewBox="0 0 40 40" fill="none" xmlns="http://www.w3.org/2000/svg">
<g clip-path="url(#clip0_4317_1129)">
<path d="M25.7654 10.9256H15.2202V29.0828H25.7654V10.9256Z" fill="#E66728"/>
<path d="M15.8933 20C15.8933 16.3202 17.6916 13.0362 20.5001 10.9251C18.4492 9.3784 15.8627 8.45478 13.0542 8.45478C6.39649 8.45478 1.00146 13.6226 1.00146 20C1.00146 26.3774 6.39649 31.5453 13.0542 31.5453C15.8627 31.5453 18.4492 30.6216 20.5001 29.0749C17.6916 26.9638 15.8933 23.6872 15.8933 20Z" fill="#C20E1A"/>
<path d="M40.0001 20C40.0001 26.3774 34.6051 31.5452 27.9474 31.5452C25.1389 31.5452 22.5523 30.6216 20.5015 29.0749C23.3023 26.9638 25.1083 23.6798 25.1083 20C25.1083 16.3202 23.3099 13.0362 20.5015 10.9251C22.5523 9.37837 25.1389 8.45475 27.9474 8.45475C34.5974 8.45475 40.0001 13.6226 40.0001 20Z" fill="#E09D1B"/>
</g>
<defs>
<clipPath id="clip0_4317_1129">
<rect width="40" height="40" fill="white"/>
</clipPath>
</defs>
</svg>
